<mxfile host="app.diagrams.net" modified="2023-04-14T17:27:01.060Z" agent="Mozilla/5.0 (Windows NT 10.0; Win64; x64) AppleWebKit/537.36 (KHTML, like Gecko) Chrome/112.0.0.0 Safari/537.36" etag="qaxzZ9GfmetjFf53bsVd" version="21.1.7" type="device">
  <diagram name="PÃ¡gina-1" id="xSsxxVW0ZjDiWxhRqGos">
    <mxGraphModel dx="2788" dy="2964" grid="1" gridSize="10" guides="1" tooltips="1" connect="1" arrows="1" fold="1" page="1" pageScale="1" pageWidth="827" pageHeight="1169" math="0" shadow="0">
      <root>
        <mxCell id="0" />
        <mxCell id="1" parent="0" />
        <mxCell id="O2sJUxpQC77xHB1nk5Rb-5" style="edgeStyle=orthogonalEdgeStyle;rounded=0;orthogonalLoop=1;jettySize=auto;html=1;dashed=1;endArrow=none;endFill=0;" parent="1" source="O2sJUxpQC77xHB1nk5Rb-2" edge="1">
          <mxGeometry relative="1" as="geometry">
            <mxPoint x="760" y="-560" as="targetPoint" />
          </mxGeometry>
        </mxCell>
        <mxCell id="O2sJUxpQC77xHB1nk5Rb-2" value="&lt;u style=&quot;&quot;&gt;&amp;nbsp; : Sistema&lt;/u&gt;" style="html=1;whiteSpace=wrap;" parent="1" vertex="1">
          <mxGeometry x="705" y="-970" width="110" height="50" as="geometry" />
        </mxCell>
        <mxCell id="O2sJUxpQC77xHB1nk5Rb-8" value="" style="edgeStyle=orthogonalEdgeStyle;html=1;verticalAlign=bottom;endArrow=classic;endSize=8;strokeColor=#ff0000;rounded=0;endFill=1;" parent="1" edge="1">
          <mxGeometry relative="1" as="geometry">
            <mxPoint x="760" y="-890" as="targetPoint" />
            <mxPoint x="240" y="-890" as="sourcePoint" />
            <Array as="points">
              <mxPoint x="480" y="-890" />
              <mxPoint x="480" y="-890" />
            </Array>
          </mxGeometry>
        </mxCell>
        <mxCell id="O2sJUxpQC77xHB1nk5Rb-9" value="obtenerCursosNoHabilitados() : set(DataCurso)" style="edgeLabel;html=1;align=center;verticalAlign=middle;resizable=0;points=[];" parent="O2sJUxpQC77xHB1nk5Rb-8" vertex="1" connectable="0">
          <mxGeometry x="0.1171" y="1" relative="1" as="geometry">
            <mxPoint y="-11" as="offset" />
          </mxGeometry>
        </mxCell>
        <mxCell id="dH0IuNloCvHcpWBTdm92-28" style="edgeStyle=orthogonalEdgeStyle;rounded=0;orthogonalLoop=1;jettySize=auto;html=1;endArrow=none;endFill=0;dashed=1;" parent="1" source="O2sJUxpQC77xHB1nk5Rb-16" edge="1">
          <mxGeometry relative="1" as="geometry">
            <mxPoint x="235" y="-550" as="targetPoint" />
          </mxGeometry>
        </mxCell>
        <mxCell id="O2sJUxpQC77xHB1nk5Rb-16" value="Usuario" style="shape=umlActor;verticalLabelPosition=bottom;verticalAlign=top;html=1;" parent="1" vertex="1">
          <mxGeometry x="220" y="-990" width="30" height="60" as="geometry" />
        </mxCell>
        <mxCell id="O2sJUxpQC77xHB1nk5Rb-22" value="alt" style="shape=umlFrame;whiteSpace=wrap;html=1;pointerEvents=0;width=80;height=30;" parent="1" vertex="1">
          <mxGeometry x="200" y="-790" width="600" height="190" as="geometry" />
        </mxCell>
        <mxCell id="O2sJUxpQC77xHB1nk5Rb-27" value="" style="line;strokeWidth=1;fillColor=none;align=left;verticalAlign=middle;spacingTop=-1;spacingLeft=3;spacingRight=3;rotatable=0;labelPosition=right;points=[];portConstraint=eastwest;strokeColor=inherit;" parent="1" vertex="1">
          <mxGeometry x="200" y="-700" width="600" height="8" as="geometry" />
        </mxCell>
        <mxCell id="O2sJUxpQC77xHB1nk5Rb-28" value="[completar]" style="text;html=1;align=center;verticalAlign=middle;resizable=0;points=[];autosize=1;strokeColor=none;fillColor=none;" parent="1" vertex="1">
          <mxGeometry x="450" y="-790" width="80" height="30" as="geometry" />
        </mxCell>
        <mxCell id="O2sJUxpQC77xHB1nk5Rb-29" value="[traduccion]" style="text;html=1;align=center;verticalAlign=middle;resizable=0;points=[];autosize=1;strokeColor=none;fillColor=none;" parent="1" vertex="1">
          <mxGeometry x="445" y="-692" width="90" height="30" as="geometry" />
        </mxCell>
        <mxCell id="dH0IuNloCvHcpWBTdm92-6" value="" style="edgeStyle=orthogonalEdgeStyle;html=1;verticalAlign=bottom;endArrow=classic;endSize=8;strokeColor=#ff0000;rounded=0;endFill=1;" parent="1" edge="1">
          <mxGeometry relative="1" as="geometry">
            <mxPoint x="760" y="-850" as="targetPoint" />
            <mxPoint x="240" y="-850" as="sourcePoint" />
          </mxGeometry>
        </mxCell>
        <mxCell id="dH0IuNloCvHcpWBTdm92-7" value="obtenerLeccionesOrdenadas(clase: DataClase) : set(DataLeccion)" style="edgeLabel;html=1;align=center;verticalAlign=middle;resizable=0;points=[];" parent="dH0IuNloCvHcpWBTdm92-6" vertex="1" connectable="0">
          <mxGeometry x="0.1171" y="1" relative="1" as="geometry">
            <mxPoint y="-11" as="offset" />
          </mxGeometry>
        </mxCell>
        <mxCell id="dH0IuNloCvHcpWBTdm92-9" value="" style="edgeStyle=orthogonalEdgeStyle;html=1;verticalAlign=bottom;endArrow=classic;endSize=8;strokeColor=#ff0000;rounded=0;endFill=1;" parent="1" edge="1">
          <mxGeometry relative="1" as="geometry">
            <mxPoint x="760" y="-730" as="targetPoint" />
            <mxPoint x="240" y="-730" as="sourcePoint" />
          </mxGeometry>
        </mxCell>
        <mxCell id="dH0IuNloCvHcpWBTdm92-10" value="agregarEjercicioCompletar(fraseAC: string, solucion: string)" style="edgeLabel;html=1;align=center;verticalAlign=middle;resizable=0;points=[];" parent="dH0IuNloCvHcpWBTdm92-9" vertex="1" connectable="0">
          <mxGeometry x="0.1171" y="1" relative="1" as="geometry">
            <mxPoint y="-11" as="offset" />
          </mxGeometry>
        </mxCell>
        <mxCell id="dH0IuNloCvHcpWBTdm92-12" value="" style="edgeStyle=orthogonalEdgeStyle;html=1;verticalAlign=bottom;endArrow=classic;endSize=8;strokeColor=#ff0000;rounded=0;endFill=1;" parent="1" edge="1">
          <mxGeometry relative="1" as="geometry">
            <mxPoint x="760" y="-630" as="targetPoint" />
            <mxPoint x="240" y="-630" as="sourcePoint" />
          </mxGeometry>
        </mxCell>
        <mxCell id="dH0IuNloCvHcpWBTdm92-13" value="agregarEjercicioTraduccion(fraseAT: string, fraseT: string)" style="edgeLabel;html=1;align=center;verticalAlign=middle;resizable=0;points=[];" parent="dH0IuNloCvHcpWBTdm92-12" vertex="1" connectable="0">
          <mxGeometry x="0.1171" y="1" relative="1" as="geometry">
            <mxPoint y="-11" as="offset" />
          </mxGeometry>
        </mxCell>
        <mxCell id="dH0IuNloCvHcpWBTdm92-17" value="" style="endArrow=none;html=1;strokeWidth=2;rounded=0;dashed=1;" parent="1" target="dH0IuNloCvHcpWBTdm92-19" edge="1">
          <mxGeometry width="50" height="50" relative="1" as="geometry">
            <mxPoint x="760" y="-850" as="sourcePoint" />
            <mxPoint x="890" y="-730" as="targetPoint" />
          </mxGeometry>
        </mxCell>
        <mxCell id="dH0IuNloCvHcpWBTdm92-19" value="El sistema recuerda la clase seleccionada" style="html=1;dropTarget=0;whiteSpace=wrap;" parent="1" vertex="1">
          <mxGeometry x="910" y="-960" width="180" height="90" as="geometry" />
        </mxCell>
        <mxCell id="dH0IuNloCvHcpWBTdm92-20" value="" style="shape=module;jettyWidth=8;jettyHeight=4;" parent="dH0IuNloCvHcpWBTdm92-19" vertex="1">
          <mxGeometry x="1" width="20" height="20" relative="1" as="geometry">
            <mxPoint x="-20" as="offset" />
          </mxGeometry>
        </mxCell>
        <mxCell id="dH0IuNloCvHcpWBTdm92-21" value="&lt;p style=&quot;margin:0px;margin-top:4px;text-align:center;&quot;&gt;&lt;i&gt;&amp;lt;&amp;lt;datatype&amp;gt;&amp;gt;&lt;/i&gt;&lt;br&gt;&lt;b&gt;DataCurso&lt;/b&gt;&lt;/p&gt;&lt;hr size=&quot;1&quot;&gt;&lt;p style=&quot;margin:0px;margin-left:4px;&quot;&gt;&lt;br&gt;&lt;/p&gt;&lt;hr size=&quot;1&quot;&gt;&lt;p style=&quot;margin:0px;margin-left:4px;&quot;&gt;+getNombre() : string&lt;/p&gt;&lt;p style=&quot;margin:0px;margin-left:4px;&quot;&gt;+getHabilitado() : bool&lt;/p&gt;&lt;p style=&quot;margin:0px;margin-left:4px;&quot;&gt;+getDificultad() : NivelDif&lt;/p&gt;" style="verticalAlign=top;align=left;overflow=fill;fontSize=12;fontFamily=Helvetica;html=1;whiteSpace=wrap;" parent="1" vertex="1">
          <mxGeometry x="280" y="-540" width="190" height="140" as="geometry" />
        </mxCell>
        <mxCell id="dH0IuNloCvHcpWBTdm92-22" value="&lt;p style=&quot;margin:0px;margin-top:4px;text-align:center;text-decoration:underline;&quot;&gt;&lt;b&gt;&amp;lt;&amp;lt;enumeration&amp;gt;&amp;gt;&lt;/b&gt;&lt;/p&gt;&lt;p style=&quot;margin:0px;margin-top:4px;text-align:center;text-decoration:underline;&quot;&gt;&lt;b&gt;NivelDif&lt;/b&gt;&lt;/p&gt;&lt;hr&gt;&lt;p style=&quot;margin:0px;margin-left:8px;&quot;&gt;principiante : String&lt;/p&gt;&lt;p style=&quot;margin:0px;margin-left:8px;&quot;&gt;intermedio : String&lt;/p&gt;&lt;p style=&quot;margin:0px;margin-left:8px;&quot;&gt;avanzado : String&lt;/p&gt;" style="verticalAlign=top;align=left;overflow=fill;fontSize=12;fontFamily=Helvetica;html=1;whiteSpace=wrap;" parent="1" vertex="1">
          <mxGeometry x="520" y="-540" width="160" height="90" as="geometry" />
        </mxCell>
        <mxCell id="dH0IuNloCvHcpWBTdm92-29" value="&lt;p style=&quot;margin:0px;margin-top:4px;text-align:center;&quot;&gt;&lt;i&gt;&amp;lt;&amp;lt;datatype&amp;gt;&amp;gt;&lt;/i&gt;&lt;br&gt;&lt;b&gt;DataLeccion&lt;/b&gt;&lt;/p&gt;&lt;hr size=&quot;1&quot;&gt;&lt;p style=&quot;margin:0px;margin-left:4px;&quot;&gt;&lt;br&gt;&lt;/p&gt;&lt;hr size=&quot;1&quot;&gt;&lt;p style=&quot;margin:0px;margin-left:4px;&quot;&gt;+getTema() : string&lt;/p&gt;&lt;p style=&quot;margin:0px;margin-left:4px;&quot;&gt;+getObjetivo() : string&lt;/p&gt;&lt;p style=&quot;margin:0px;margin-left:4px;&quot;&gt;&lt;br&gt;&lt;/p&gt;" style="verticalAlign=top;align=left;overflow=fill;fontSize=12;fontFamily=Helvetica;html=1;whiteSpace=wrap;" parent="1" vertex="1">
          <mxGeometry x="710" y="-540" width="190" height="140" as="geometry" />
        </mxCell>
        <mxCell id="dH0IuNloCvHcpWBTdm92-30" value="El sistema recuerda la leccion seleccionada" style="html=1;dropTarget=0;whiteSpace=wrap;" parent="1" vertex="1">
          <mxGeometry x="910" y="-830" width="180" height="90" as="geometry" />
        </mxCell>
        <mxCell id="dH0IuNloCvHcpWBTdm92-31" value="" style="shape=module;jettyWidth=8;jettyHeight=4;" parent="dH0IuNloCvHcpWBTdm92-30" vertex="1">
          <mxGeometry x="1" width="20" height="20" relative="1" as="geometry">
            <mxPoint x="-20" as="offset" />
          </mxGeometry>
        </mxCell>
        <mxCell id="dH0IuNloCvHcpWBTdm92-33" value="" style="endArrow=none;html=1;strokeWidth=2;rounded=0;dashed=1;entryX=0.002;entryY=0.409;entryDx=0;entryDy=0;entryPerimeter=0;" parent="1" target="dH0IuNloCvHcpWBTdm92-30" edge="1">
          <mxGeometry width="50" height="50" relative="1" as="geometry">
            <mxPoint x="760" y="-810" as="sourcePoint" />
            <mxPoint x="920" y="-847" as="targetPoint" />
          </mxGeometry>
        </mxCell>
        <mxCell id="dH0IuNloCvHcpWBTdm92-35" style="edgeStyle=orthogonalEdgeStyle;rounded=0;orthogonalLoop=1;jettySize=auto;html=1;dashed=1;endArrow=none;endFill=0;" parent="1" source="dH0IuNloCvHcpWBTdm92-36" edge="1">
          <mxGeometry relative="1" as="geometry">
            <mxPoint x="2060" y="-550" as="targetPoint" />
          </mxGeometry>
        </mxCell>
        <mxCell id="dH0IuNloCvHcpWBTdm92-36" value="&lt;u style=&quot;&quot;&gt;&amp;nbsp; : Sistema&lt;/u&gt;" style="html=1;whiteSpace=wrap;" parent="1" vertex="1">
          <mxGeometry x="2005" y="-1169" width="110" height="50" as="geometry" />
        </mxCell>
        <mxCell id="dH0IuNloCvHcpWBTdm92-37" value="" style="edgeStyle=orthogonalEdgeStyle;html=1;verticalAlign=bottom;endArrow=open;endSize=8;strokeColor=#ff0000;rounded=0;" parent="1" edge="1">
          <mxGeometry relative="1" as="geometry">
            <mxPoint x="2060" y="-1080" as="targetPoint" />
            <mxPoint x="1540" y="-1080" as="sourcePoint" />
            <Array as="points">
              <mxPoint x="1780" y="-1080" />
              <mxPoint x="1780" y="-1080" />
            </Array>
          </mxGeometry>
        </mxCell>
        <mxCell id="dH0IuNloCvHcpWBTdm92-38" value="obtenerCursosNoHabilitados() : set(DataCurso)" style="edgeLabel;html=1;align=center;verticalAlign=middle;resizable=0;points=[];" parent="dH0IuNloCvHcpWBTdm92-37" vertex="1" connectable="0">
          <mxGeometry x="0.1171" y="1" relative="1" as="geometry">
            <mxPoint y="-11" as="offset" />
          </mxGeometry>
        </mxCell>
        <mxCell id="dH0IuNloCvHcpWBTdm92-39" style="edgeStyle=orthogonalEdgeStyle;rounded=0;orthogonalLoop=1;jettySize=auto;html=1;endArrow=none;endFill=0;dashed=1;" parent="1" source="dH0IuNloCvHcpWBTdm92-40" edge="1">
          <mxGeometry relative="1" as="geometry">
            <mxPoint x="1535" y="-550" as="targetPoint" />
          </mxGeometry>
        </mxCell>
        <mxCell id="dH0IuNloCvHcpWBTdm92-40" value="Usuario" style="shape=umlActor;verticalLabelPosition=bottom;verticalAlign=top;html=1;" parent="1" vertex="1">
          <mxGeometry x="1520" y="-1180" width="30" height="60" as="geometry" />
        </mxCell>
        <mxCell id="dH0IuNloCvHcpWBTdm92-41" value="alt" style="shape=umlFrame;whiteSpace=wrap;html=1;pointerEvents=0;width=80;height=30;" parent="1" vertex="1">
          <mxGeometry x="1500" y="-821" width="600" height="190" as="geometry" />
        </mxCell>
        <mxCell id="dH0IuNloCvHcpWBTdm92-42" value="" style="line;strokeWidth=1;fillColor=none;align=left;verticalAlign=middle;spacingTop=-1;spacingLeft=3;spacingRight=3;rotatable=0;labelPosition=right;points=[];portConstraint=eastwest;strokeColor=inherit;" parent="1" vertex="1">
          <mxGeometry x="1500" y="-730" width="600" height="8" as="geometry" />
        </mxCell>
        <mxCell id="dH0IuNloCvHcpWBTdm92-43" value="[completar]" style="text;html=1;align=center;verticalAlign=middle;resizable=0;points=[];autosize=1;strokeColor=none;fillColor=none;" parent="1" vertex="1">
          <mxGeometry x="1750" y="-820" width="80" height="30" as="geometry" />
        </mxCell>
        <mxCell id="dH0IuNloCvHcpWBTdm92-44" value="[traduccion]" style="text;html=1;align=center;verticalAlign=middle;resizable=0;points=[];autosize=1;strokeColor=none;fillColor=none;" parent="1" vertex="1">
          <mxGeometry x="1745" y="-722" width="90" height="30" as="geometry" />
        </mxCell>
        <mxCell id="dH0IuNloCvHcpWBTdm92-45" value="" style="edgeStyle=orthogonalEdgeStyle;html=1;verticalAlign=bottom;endArrow=classic;endSize=8;strokeColor=#ff0000;rounded=0;endFill=1;" parent="1" edge="1">
          <mxGeometry relative="1" as="geometry">
            <mxPoint x="2060" y="-1040" as="targetPoint" />
            <mxPoint x="1540" y="-1040" as="sourcePoint" />
          </mxGeometry>
        </mxCell>
        <mxCell id="dH0IuNloCvHcpWBTdm92-46" value="NuevaLeccion(curso: DataCurso, nombre: string, objetivo: string)&amp;nbsp;" style="edgeLabel;html=1;align=center;verticalAlign=middle;resizable=0;points=[];" parent="dH0IuNloCvHcpWBTdm92-45" vertex="1" connectable="0">
          <mxGeometry x="0.1171" y="1" relative="1" as="geometry">
            <mxPoint y="-11" as="offset" />
          </mxGeometry>
        </mxCell>
        <mxCell id="dH0IuNloCvHcpWBTdm92-47" value="" style="edgeStyle=orthogonalEdgeStyle;html=1;verticalAlign=bottom;endArrow=classic;endSize=8;strokeColor=#ff0000;rounded=0;endFill=1;" parent="1" edge="1">
          <mxGeometry relative="1" as="geometry">
            <mxPoint x="2060" y="-760" as="targetPoint" />
            <mxPoint x="1540" y="-760" as="sourcePoint" />
          </mxGeometry>
        </mxCell>
        <mxCell id="dH0IuNloCvHcpWBTdm92-48" value="agregarEjercicioCompletar(fraseAC: string, solucion: string)" style="edgeLabel;html=1;align=center;verticalAlign=middle;resizable=0;points=[];" parent="dH0IuNloCvHcpWBTdm92-47" vertex="1" connectable="0">
          <mxGeometry x="0.1171" y="1" relative="1" as="geometry">
            <mxPoint y="-11" as="offset" />
          </mxGeometry>
        </mxCell>
        <mxCell id="dH0IuNloCvHcpWBTdm92-49" value="" style="edgeStyle=orthogonalEdgeStyle;html=1;verticalAlign=bottom;endArrow=classic;endSize=8;strokeColor=#ff0000;rounded=0;endFill=1;" parent="1" edge="1">
          <mxGeometry relative="1" as="geometry">
            <mxPoint x="2060" y="-660" as="targetPoint" />
            <mxPoint x="1540" y="-660" as="sourcePoint" />
          </mxGeometry>
        </mxCell>
        <mxCell id="dH0IuNloCvHcpWBTdm92-50" value="agregarEjercicioTraduccion(fraseAT: string, fraseT: string)" style="edgeLabel;html=1;align=center;verticalAlign=middle;resizable=0;points=[];" parent="dH0IuNloCvHcpWBTdm92-49" vertex="1" connectable="0">
          <mxGeometry x="0.1171" y="1" relative="1" as="geometry">
            <mxPoint y="-11" as="offset" />
          </mxGeometry>
        </mxCell>
        <mxCell id="dH0IuNloCvHcpWBTdm92-51" value="" style="endArrow=none;html=1;strokeWidth=2;rounded=0;dashed=1;" parent="1" target="dH0IuNloCvHcpWBTdm92-52" edge="1">
          <mxGeometry width="50" height="50" relative="1" as="geometry">
            <mxPoint x="2060" y="-1040" as="sourcePoint" />
            <mxPoint x="2190" y="-760" as="targetPoint" />
          </mxGeometry>
        </mxCell>
        <mxCell id="dH0IuNloCvHcpWBTdm92-52" value="El sistema recuerda la clase seleccionada" style="html=1;dropTarget=0;whiteSpace=wrap;" parent="1" vertex="1">
          <mxGeometry x="2200" y="-1150" width="180" height="90" as="geometry" />
        </mxCell>
        <mxCell id="dH0IuNloCvHcpWBTdm92-53" value="" style="shape=module;jettyWidth=8;jettyHeight=4;" parent="dH0IuNloCvHcpWBTdm92-52" vertex="1">
          <mxGeometry x="1" width="20" height="20" relative="1" as="geometry">
            <mxPoint x="-20" as="offset" />
          </mxGeometry>
        </mxCell>
        <mxCell id="dH0IuNloCvHcpWBTdm92-54" value="&lt;p style=&quot;margin:0px;margin-top:4px;text-align:center;text-decoration:underline;&quot;&gt;&lt;b&gt;&amp;lt;&amp;lt;enumeration&amp;gt;&amp;gt;&lt;/b&gt;&lt;/p&gt;&lt;p style=&quot;margin:0px;margin-top:4px;text-align:center;text-decoration:underline;&quot;&gt;&lt;b&gt;NivelDif&lt;/b&gt;&lt;/p&gt;&lt;hr&gt;&lt;p style=&quot;margin:0px;margin-left:8px;&quot;&gt;principiante : String&lt;/p&gt;&lt;p style=&quot;margin:0px;margin-left:8px;&quot;&gt;intermedio : String&lt;/p&gt;&lt;p style=&quot;margin:0px;margin-left:8px;&quot;&gt;avanzado : String&lt;/p&gt;" style="verticalAlign=top;align=left;overflow=fill;fontSize=12;fontFamily=Helvetica;html=1;whiteSpace=wrap;" parent="1" vertex="1">
          <mxGeometry x="1845" y="-510" width="160" height="90" as="geometry" />
        </mxCell>
        <mxCell id="dH0IuNloCvHcpWBTdm92-59" value="opt" style="shape=umlFrame;whiteSpace=wrap;html=1;pointerEvents=0;" parent="1" vertex="1">
          <mxGeometry x="1430" y="-1004" width="730" height="420" as="geometry" />
        </mxCell>
        <mxCell id="dH0IuNloCvHcpWBTdm92-63" value="loop" style="shape=umlFrame;whiteSpace=wrap;html=1;pointerEvents=0;" parent="1" vertex="1">
          <mxGeometry x="1460" y="-960" width="670" height="350" as="geometry" />
        </mxCell>
        <mxCell id="dH0IuNloCvHcpWBTdm92-64" value="[mientras desee agregar ejercicio]" style="text;html=1;align=center;verticalAlign=middle;resizable=0;points=[];autosize=1;strokeColor=none;fillColor=none;" parent="1" vertex="1">
          <mxGeometry x="1520" y="-960" width="200" height="30" as="geometry" />
        </mxCell>
        <mxCell id="dH0IuNloCvHcpWBTdm92-65" value="" style="edgeStyle=orthogonalEdgeStyle;html=1;verticalAlign=bottom;endArrow=classic;endSize=8;strokeColor=#ff0000;rounded=0;endFill=1;" parent="1" edge="1">
          <mxGeometry relative="1" as="geometry">
            <mxPoint x="2060" y="-890" as="targetPoint" />
            <mxPoint x="1540" y="-890" as="sourcePoint" />
          </mxGeometry>
        </mxCell>
        <mxCell id="dH0IuNloCvHcpWBTdm92-66" value="agregarEjercicio(tipo: TipoEj, descripcion: string)" style="edgeLabel;html=1;align=center;verticalAlign=middle;resizable=0;points=[];" parent="dH0IuNloCvHcpWBTdm92-65" vertex="1" connectable="0">
          <mxGeometry x="0.1171" y="1" relative="1" as="geometry">
            <mxPoint y="-11" as="offset" />
          </mxGeometry>
        </mxCell>
        <mxCell id="dH0IuNloCvHcpWBTdm92-67" value="&lt;p style=&quot;margin:0px;margin-top:4px;text-align:center;text-decoration:underline;&quot;&gt;&lt;b&gt;&amp;lt;&amp;lt;enumeration&amp;gt;&amp;gt;&lt;/b&gt;&lt;/p&gt;&lt;p style=&quot;margin:0px;margin-top:4px;text-align:center;text-decoration:underline;&quot;&gt;&lt;b&gt;TipoEj&lt;/b&gt;&lt;/p&gt;&lt;hr&gt;&lt;p style=&quot;margin:0px;margin-left:8px;&quot;&gt;FraseACompletar : String&lt;/p&gt;&lt;p style=&quot;margin:0px;margin-left:8px;&quot;&gt;FraseATraducir : String&lt;/p&gt;" style="verticalAlign=top;align=left;overflow=fill;fontSize=12;fontFamily=Helvetica;html=1;whiteSpace=wrap;" parent="1" vertex="1">
          <mxGeometry x="2060" y="-510" width="160" height="90" as="geometry" />
        </mxCell>
        <mxCell id="dH0IuNloCvHcpWBTdm92-69" value="" style="edgeStyle=orthogonalEdgeStyle;html=1;verticalAlign=bottom;endArrow=classic;endSize=8;strokeColor=#ff0000;rounded=0;endFill=1;" parent="1" edge="1">
          <mxGeometry relative="1" as="geometry">
            <mxPoint x="760" y="-810" as="targetPoint" />
            <mxPoint x="240" y="-810" as="sourcePoint" />
          </mxGeometry>
        </mxCell>
        <mxCell id="dH0IuNloCvHcpWBTdm92-70" value="agregarEjercicio(leccion: DataLeccion, tipo: TipoEj, descripcion: string)" style="edgeLabel;html=1;align=center;verticalAlign=middle;resizable=0;points=[];" parent="dH0IuNloCvHcpWBTdm92-69" vertex="1" connectable="0">
          <mxGeometry x="0.1171" y="1" relative="1" as="geometry">
            <mxPoint y="-11" as="offset" />
          </mxGeometry>
        </mxCell>
        <mxCell id="dH0IuNloCvHcpWBTdm92-71" value="&lt;p style=&quot;margin:0px;margin-top:4px;text-align:center;text-decoration:underline;&quot;&gt;&lt;b&gt;&amp;lt;&amp;lt;enumeration&amp;gt;&amp;gt;&lt;/b&gt;&lt;/p&gt;&lt;p style=&quot;margin:0px;margin-top:4px;text-align:center;text-decoration:underline;&quot;&gt;&lt;b&gt;TipoEj&lt;/b&gt;&lt;/p&gt;&lt;hr&gt;&lt;p style=&quot;margin:0px;margin-left:8px;&quot;&gt;FraseACompletar : String&lt;/p&gt;&lt;p style=&quot;margin:0px;margin-left:8px;&quot;&gt;FraseATraducir : String&lt;/p&gt;" style="verticalAlign=top;align=left;overflow=fill;fontSize=12;fontFamily=Helvetica;html=1;whiteSpace=wrap;" parent="1" vertex="1">
          <mxGeometry x="940" y="-540" width="160" height="90" as="geometry" />
        </mxCell>
        <mxCell id="dH0IuNloCvHcpWBTdm92-72" value="&lt;p style=&quot;margin:0px;margin-top:4px;text-align:center;&quot;&gt;&lt;i&gt;&amp;lt;&amp;lt;datatype&amp;gt;&amp;gt;&lt;/i&gt;&lt;br&gt;&lt;b&gt;DataCurso&lt;/b&gt;&lt;/p&gt;&lt;hr size=&quot;1&quot;&gt;&lt;p style=&quot;margin:0px;margin-left:4px;&quot;&gt;&lt;br&gt;&lt;/p&gt;&lt;hr size=&quot;1&quot;&gt;&lt;p style=&quot;margin:0px;margin-left:4px;&quot;&gt;+getNombre() : string&lt;/p&gt;&lt;p style=&quot;margin:0px;margin-left:4px;&quot;&gt;+getHabilitado() : bool&lt;/p&gt;&lt;p style=&quot;margin:0px;margin-left:4px;&quot;&gt;+getDificultad() : NivelDif&lt;/p&gt;" style="verticalAlign=top;align=left;overflow=fill;fontSize=12;fontFamily=Helvetica;html=1;whiteSpace=wrap;" parent="1" vertex="1">
          <mxGeometry x="1590" y="-510" width="190" height="140" as="geometry" />
        </mxCell>
        <mxCell id="dH0IuNloCvHcpWBTdm92-73" style="edgeStyle=orthogonalEdgeStyle;rounded=0;orthogonalLoop=1;jettySize=auto;html=1;dashed=1;endArrow=none;endFill=0;" parent="1" source="dH0IuNloCvHcpWBTdm92-74" edge="1">
          <mxGeometry relative="1" as="geometry">
            <mxPoint x="-420" y="-930" as="targetPoint" />
          </mxGeometry>
        </mxCell>
        <mxCell id="dH0IuNloCvHcpWBTdm92-74" value="&lt;u style=&quot;&quot;&gt;&amp;nbsp; : Sistema&lt;/u&gt;" style="html=1;whiteSpace=wrap;" parent="1" vertex="1">
          <mxGeometry x="-475" y="-1080" width="110" height="50" as="geometry" />
        </mxCell>
        <mxCell id="dH0IuNloCvHcpWBTdm92-75" value="" style="edgeStyle=orthogonalEdgeStyle;html=1;verticalAlign=bottom;endArrow=open;endSize=8;strokeColor=#ff0000;rounded=0;" parent="1" edge="1">
          <mxGeometry relative="1" as="geometry">
            <mxPoint x="-420" y="-1000" as="targetPoint" />
            <mxPoint x="-940" y="-1000" as="sourcePoint" />
            <Array as="points">
              <mxPoint x="-700" y="-1000" />
              <mxPoint x="-700" y="-1000" />
            </Array>
          </mxGeometry>
        </mxCell>
        <mxCell id="dH0IuNloCvHcpWBTdm92-76" value="obtenerCursoNoHabilitados() : set(DataCurso)" style="edgeLabel;html=1;align=center;verticalAlign=middle;resizable=0;points=[];" parent="dH0IuNloCvHcpWBTdm92-75" vertex="1" connectable="0">
          <mxGeometry x="0.1171" y="1" relative="1" as="geometry">
            <mxPoint x="-21" y="-11" as="offset" />
          </mxGeometry>
        </mxCell>
        <mxCell id="dH0IuNloCvHcpWBTdm92-77" style="edgeStyle=orthogonalEdgeStyle;rounded=0;orthogonalLoop=1;jettySize=auto;html=1;endArrow=none;endFill=0;dashed=1;" parent="1" source="dH0IuNloCvHcpWBTdm92-78" edge="1">
          <mxGeometry relative="1" as="geometry">
            <mxPoint x="-945" y="-920" as="targetPoint" />
          </mxGeometry>
        </mxCell>
        <mxCell id="dH0IuNloCvHcpWBTdm92-78" value="Usuario" style="shape=umlActor;verticalLabelPosition=bottom;verticalAlign=top;html=1;" parent="1" vertex="1">
          <mxGeometry x="-960" y="-1100" width="30" height="60" as="geometry" />
        </mxCell>
        <mxCell id="dH0IuNloCvHcpWBTdm92-90" value="&lt;p style=&quot;margin:0px;margin-top:4px;text-align:center;&quot;&gt;&lt;i&gt;&amp;lt;&amp;lt;datatype&amp;gt;&amp;gt;&lt;/i&gt;&lt;br&gt;&lt;b&gt;DataCurso&lt;/b&gt;&lt;/p&gt;&lt;hr size=&quot;1&quot;&gt;&lt;p style=&quot;margin:0px;margin-left:4px;&quot;&gt;&lt;br&gt;&lt;/p&gt;&lt;hr size=&quot;1&quot;&gt;&lt;p style=&quot;margin:0px;margin-left:4px;&quot;&gt;+getNombre() : string&lt;/p&gt;&lt;p style=&quot;margin:0px;margin-left:4px;&quot;&gt;+getHabilitado() : bool&lt;/p&gt;&lt;p style=&quot;margin:0px;margin-left:4px;&quot;&gt;+getDificultad() : NivelDif&lt;/p&gt;" style="verticalAlign=top;align=left;overflow=fill;fontSize=12;fontFamily=Helvetica;html=1;whiteSpace=wrap;" parent="1" vertex="1">
          <mxGeometry x="-880" y="-655" width="190" height="140" as="geometry" />
        </mxCell>
        <mxCell id="dH0IuNloCvHcpWBTdm92-91" value="&lt;p style=&quot;margin:0px;margin-top:4px;text-align:center;text-decoration:underline;&quot;&gt;&lt;b&gt;&amp;lt;&amp;lt;enumeration&amp;gt;&amp;gt;&lt;/b&gt;&lt;/p&gt;&lt;p style=&quot;margin:0px;margin-top:4px;text-align:center;text-decoration:underline;&quot;&gt;&lt;b&gt;NivelDif&lt;/b&gt;&lt;/p&gt;&lt;hr&gt;&lt;p style=&quot;margin:0px;margin-left:8px;&quot;&gt;principiante : String&lt;/p&gt;&lt;p style=&quot;margin:0px;margin-left:8px;&quot;&gt;intermedio : String&lt;/p&gt;&lt;p style=&quot;margin:0px;margin-left:8px;&quot;&gt;avanzado : String&lt;/p&gt;" style="verticalAlign=top;align=left;overflow=fill;fontSize=12;fontFamily=Helvetica;html=1;whiteSpace=wrap;" parent="1" vertex="1">
          <mxGeometry x="-660" y="-650" width="160" height="90" as="geometry" />
        </mxCell>
        <mxCell id="dH0IuNloCvHcpWBTdm92-92" value="&lt;p style=&quot;margin:0px;margin-top:4px;text-align:center;&quot;&gt;&lt;i&gt;&amp;lt;&amp;lt;datatype&amp;gt;&amp;gt;&lt;/i&gt;&lt;br&gt;&lt;b&gt;DataLeccion&lt;/b&gt;&lt;/p&gt;&lt;hr size=&quot;1&quot;&gt;&lt;p style=&quot;margin:0px;margin-left:4px;&quot;&gt;&lt;br&gt;&lt;/p&gt;&lt;hr size=&quot;1&quot;&gt;&lt;p style=&quot;margin:0px;margin-left:4px;&quot;&gt;+getTema() : string&lt;/p&gt;&lt;p style=&quot;margin:0px;margin-left:4px;&quot;&gt;+getObjetivo() : string&lt;/p&gt;&lt;p style=&quot;margin:0px;margin-left:4px;&quot;&gt;&lt;br&gt;&lt;/p&gt;" style="verticalAlign=top;align=left;overflow=fill;fontSize=12;fontFamily=Helvetica;html=1;whiteSpace=wrap;" parent="1" vertex="1">
          <mxGeometry x="-475" y="-650" width="190" height="140" as="geometry" />
        </mxCell>
        <mxCell id="dH0IuNloCvHcpWBTdm92-96" value="" style="edgeStyle=orthogonalEdgeStyle;html=1;verticalAlign=bottom;endArrow=open;endSize=8;strokeColor=#ff0000;rounded=0;" parent="1" edge="1">
          <mxGeometry relative="1" as="geometry">
            <mxPoint x="-420" y="-960" as="targetPoint" />
            <mxPoint x="-940" y="-960" as="sourcePoint" />
          </mxGeometry>
        </mxCell>
        <mxCell id="dH0IuNloCvHcpWBTdm92-97" value="habilitarCurso(curso: DataCurso)" style="edgeLabel;html=1;align=center;verticalAlign=middle;resizable=0;points=[];" parent="dH0IuNloCvHcpWBTdm92-96" vertex="1" connectable="0">
          <mxGeometry x="0.1171" y="1" relative="1" as="geometry">
            <mxPoint x="-41" y="-9" as="offset" />
          </mxGeometry>
        </mxCell>
        <mxCell id="dH0IuNloCvHcpWBTdm92-98" value="&lt;p style=&quot;margin:0px;margin-top:4px;text-align:center;text-decoration:underline;&quot;&gt;&lt;b&gt;&amp;lt;&amp;lt;enumeration&amp;gt;&amp;gt;&lt;/b&gt;&lt;/p&gt;&lt;p style=&quot;margin:0px;margin-top:4px;text-align:center;text-decoration:underline;&quot;&gt;&lt;b&gt;TipoEj&lt;/b&gt;&lt;/p&gt;&lt;hr&gt;&lt;p style=&quot;margin:0px;margin-left:8px;&quot;&gt;FraseACompletar : String&lt;/p&gt;&lt;p style=&quot;margin:0px;margin-left:8px;&quot;&gt;FraseATraducir : String&lt;/p&gt;" style="verticalAlign=top;align=left;overflow=fill;fontSize=12;fontFamily=Helvetica;html=1;whiteSpace=wrap;" parent="1" vertex="1">
          <mxGeometry x="-240" y="-650" width="160" height="90" as="geometry" />
        </mxCell>
        <mxCell id="dFEv_At_qQhoKWII6UtM-4" value="&lt;b&gt;sd&lt;/b&gt; agregarLeccion" style="shape=umlFrame;whiteSpace=wrap;html=1;pointerEvents=0;width=120;height=30;" parent="1" vertex="1">
          <mxGeometry x="1330" y="-1240" width="1130" height="920" as="geometry" />
        </mxCell>
        <mxCell id="dFEv_At_qQhoKWII6UtM-5" value="&lt;b&gt;Sd&lt;/b&gt; agregarEjercicio" style="shape=umlFrame;whiteSpace=wrap;html=1;pointerEvents=0;width=120;height=30;" parent="1" vertex="1">
          <mxGeometry x="130" y="-1130" width="1040" height="780" as="geometry" />
        </mxCell>
        <mxCell id="dFEv_At_qQhoKWII6UtM-6" value="&lt;b&gt;sd &lt;/b&gt;habilitarCurso" style="shape=umlFrame;whiteSpace=wrap;html=1;pointerEvents=0;width=110;height=30;" parent="1" vertex="1">
          <mxGeometry x="-990" y="-1190" width="1080" height="720" as="geometry" />
        </mxCell>
        <mxCell id="dFEv_At_qQhoKWII6UtM-7" value="[crear ejercicio]" style="text;html=1;align=center;verticalAlign=middle;resizable=0;points=[];autosize=1;strokeColor=none;fillColor=none;" parent="1" vertex="1">
          <mxGeometry x="1485" y="-1004" width="100" height="30" as="geometry" />
        </mxCell>
      </root>
    </mxGraphModel>
  </diagram>
</mxfile>
